<svg width="23" height="23" viewBox="0 0 23 23" fill="none" xmlns="http://www.w3.org/2000/svg">
<path fill-rule="evenodd" clip-rule="evenodd" d="M15.9284 6.40237C15.695 4.16796 13.7966 2.42582 11.4892 2.42582C10.305 2.42086 9.16491 2.88655 8.32381 3.71993C7.5937 4.44334 7.14108 5.39208 7.03433 6.40237H7.03354C5.41692 6.40237 4.05869 7.58318 3.67711 9.63344L2.98661 14.9605C2.39885 18.8611 4.23319 20.5757 7.82316 20.5757H15.1714C18.4913 20.5757 20.4756 18.643 20.0682 15.1745L19.3553 9.66915C18.8983 7.59338 17.5751 6.40237 15.9933 6.40237H15.9284ZM14.5977 6.40237C14.3722 4.89554 13.0661 3.73963 11.4865 3.73963C10.6506 3.73613 9.84777 4.06406 9.25549 4.6509C8.77461 5.12736 8.46469 5.74264 8.36511 6.40237H14.5977ZM7.03354 7.71619H15.9933C16.9209 7.71619 17.7359 8.4497 18.0558 9.89441L18.7306 15.1283C19.1322 17.9129 17.7955 19.2619 15.1714 19.2619H7.82316C4.98177 19.2619 3.83509 18.1901 4.2943 15.1418L4.98106 9.83696C5.24349 8.43239 6.0673 7.71619 7.03354 7.71619ZM14.0998 10.1544C14.4644 10.1544 14.76 10.4485 14.76 10.8113C14.76 11.1439 14.5116 11.4187 14.1894 11.4622L14.0998 11.4682H14.0595C13.6949 11.4682 13.3993 11.1741 13.3993 10.8113C13.3993 10.4788 13.6477 10.2039 13.9699 10.1604L14.0595 10.1544H14.0998ZM9.62749 10.8113C9.62749 10.4485 9.33191 10.1544 8.9673 10.1544H8.92701L8.83743 10.1604C8.51518 10.2039 8.26681 10.4788 8.26681 10.8113C8.26681 11.1741 8.56239 11.4682 8.92701 11.4682H8.9673L9.05688 11.4622C9.37912 11.4187 9.62749 11.1439 9.62749 10.8113Z" fill="#B04295"/>
</svg>
