<svg width="25" height="25" viewBox="0 0 25 25" fill="none" xmlns="http://www.w3.org/2000/svg">
<path d="M23.0324 17.5288V20.8522C23.0337 21.1608 22.9705 21.4661 22.8469 21.7488C22.7233 22.0315 22.542 22.2853 22.3147 22.4939C22.0873 22.7024 21.8189 22.8612 21.5266 22.9601C21.2344 23.0589 20.9247 23.0956 20.6174 23.0679C17.2084 22.6975 13.9339 21.5326 11.0569 19.6669C8.38023 17.966 6.11087 15.6966 4.41 13.0199C2.53776 10.1299 1.37263 6.83942 1.00899 3.41515C0.981308 3.1088 1.01772 2.80005 1.1159 2.50854C1.21408 2.21703 1.37188 1.94916 1.57926 1.72199C1.78664 1.49481 2.03905 1.3133 2.32042 1.18901C2.60179 1.06473 2.90596 1.0004 3.21355 1.00011H6.53701C7.07464 0.994816 7.59585 1.1852 8.0035 1.53577C8.41114 1.88635 8.6774 2.37319 8.75265 2.90556C8.89292 3.96914 9.15307 5.01343 9.52812 6.01853C9.67717 6.41504 9.70943 6.84597 9.62107 7.26026C9.53272 7.67455 9.32745 8.05482 9.0296 8.35603L7.62267 9.76296C9.19971 12.5364 11.4961 14.8328 14.2696 16.4099L15.6765 15.0029C15.9777 14.7051 16.358 14.4998 16.7723 14.4115C17.1866 14.3231 17.6175 14.3554 18.014 14.5044C19.0191 14.8795 20.0634 15.1396 21.127 15.2799C21.6651 15.3558 22.1566 15.6269 22.5079 16.0415C22.8592 16.4562 23.0459 16.9855 23.0324 17.5288Z" stroke="#595959" stroke-width="2" stroke-linecap="round" stroke-linejoin="round"/>
</svg>
