<svg width="16" height="18" viewBox="0 0 16 18" fill="none" xmlns="http://www.w3.org/2000/svg">
<path fill-rule="evenodd" clip-rule="evenodd" d="M7.77325 17.2617C7.86553 17.3099 7.96872 17.3344 8.07192 17.3336C8.17511 17.3328 8.27746 17.3075 8.37058 17.2584L11.3438 15.669C12.187 15.2196 12.8472 14.717 13.3623 14.1319C14.4823 12.8572 15.0939 11.2302 15.083 9.55252L15.0478 4.01864C15.0444 3.38125 14.6258 2.8125 14.0066 2.60576L8.47545 0.749962C8.14239 0.637193 7.77744 0.639644 7.45025 0.755683L1.94004 2.67767C1.32425 2.89258 0.913169 3.46542 0.916524 4.10363L0.95176 9.63342C0.962666 11.3135 1.59523 12.9332 2.73369 14.1949C3.25383 14.7718 3.91996 15.267 4.77233 15.7091L7.77325 17.2617ZM6.98614 10.7578C7.11031 10.8771 7.27139 10.9359 7.43246 10.9343C7.59354 10.9335 7.75378 10.873 7.87627 10.752L11.1255 7.54874C11.3697 7.30767 11.3671 6.92033 11.1205 6.68254C10.873 6.44474 10.4745 6.44637 10.2304 6.68744L7.42324 9.45438L6.27388 8.34957C6.02639 8.11177 5.62873 8.11422 5.38375 8.35529C5.13962 8.59635 5.14214 8.98369 5.38963 9.22149L6.98614 10.7578Z" fill="#B04295"/>
</svg>
